<svg width="615" height="360" viewBox="0 0 615 360" fill="none" xmlns="http://www.w3.org/2000/svg">
<g clip-path="url(#clip0)">
<path d="M547.256 134.635C533.956 134.635 520.955 130.687 509.896 123.29C498.838 115.893 490.219 105.38 485.13 93.0789C480.04 80.7783 478.708 67.2429 481.303 54.1846C483.898 41.1263 490.302 29.1314 499.706 19.7169C509.111 10.3024 521.093 3.89098 534.137 1.29352C547.181 -1.30394 560.702 0.0291674 572.989 5.12428C585.276 10.2194 595.778 18.8476 603.167 29.918C610.556 40.9883 614.5 54.0035 614.5 67.3176C614.48 85.1651 607.389 102.276 594.782 114.896C582.176 127.516 565.084 134.615 547.256 134.635ZM547.256 1.05187C534.164 1.05187 521.366 4.93829 510.48 12.2197C499.595 19.501 491.11 29.8503 486.1 41.9588C481.09 54.0673 479.78 67.3911 482.334 80.2454C484.888 93.0997 491.192 104.907 500.449 114.175C509.707 123.442 521.501 129.753 534.342 132.31C547.182 134.867 560.491 133.555 572.587 128.539C584.682 123.524 595.02 115.03 602.294 104.133C609.567 93.2355 613.449 80.4237 613.449 67.3176C613.429 49.7489 606.449 32.9055 594.04 20.4826C581.63 8.05968 564.805 1.07174 547.256 1.05187Z" fill="#3F3D56"/>
<path d="M547.481 101.313C566.129 101.313 581.247 86.1793 581.247 67.5108C581.247 48.8423 566.129 33.7085 547.481 33.7085C528.833 33.7085 513.715 48.8423 513.715 67.5108C513.715 86.1793 528.833 101.313 547.481 101.313Z" fill="#F2F2F2"/>
<path d="M549.709 67.5892H34.2503V326.827H549.709V67.5892Z" fill="#3F3D56"/>
<path opacity="0.1" d="M372.367 142.535H179.07V275.225H372.367V142.535Z" fill="black"/>
<path d="M593.696 33.6298C601.215 33.6298 607.311 27.5275 607.311 19.9999C607.311 12.4722 601.215 6.36987 593.696 6.36987C586.176 6.36987 580.08 12.4722 580.08 19.9999C580.08 27.5275 586.176 33.6298 593.696 33.6298Z" fill="#5E60CE"/>
<path d="M49.5913 83.5613C52.9804 83.5613 55.7277 80.811 55.7277 77.4182C55.7277 74.0255 52.9804 71.2751 49.5913 71.2751C46.2023 71.2751 43.4549 74.0255 43.4549 77.4182C43.4549 80.811 46.2023 83.5613 49.5913 83.5613Z" fill="#5E60CE"/>
<path d="M68.6142 83.5613C72.0032 83.5613 74.7506 80.811 74.7506 77.4182C74.7506 74.0255 72.0032 71.2751 68.6142 71.2751C65.2251 71.2751 62.4778 74.0255 62.4778 77.4182C62.4778 80.811 65.2251 83.5613 68.6142 83.5613Z" fill="#5E60CE"/>
<path d="M87.6371 83.5613C91.0261 83.5613 93.7735 80.811 93.7735 77.4182C93.7735 74.0255 91.0261 71.2751 87.6371 71.2751C84.248 71.2751 81.5006 74.0255 81.5006 77.4182C81.5006 80.811 84.248 83.5613 87.6371 83.5613Z" fill="#5E60CE"/>
<path d="M106.046 164.036H93.7735V176.322H106.046V164.036Z" fill="#5E60CE"/>
<path d="M479.754 270.925H467.481V283.211H479.754V270.925Z" fill="white"/>
<path d="M436.482 185.497L426.941 193.225L434.661 202.776L444.202 195.048L436.482 185.497Z" fill="#5E60CE"/>
<path d="M393.23 352.628H7.8638V144.992H9.09101V351.4H393.23V352.628Z" fill="#3F3D56"/>
<path d="M400.594 360C399.016 360 397.474 359.532 396.162 358.654C394.85 357.777 393.828 356.529 393.224 355.07C392.62 353.611 392.462 352.005 392.77 350.456C393.078 348.907 393.838 347.484 394.953 346.367C396.069 345.25 397.49 344.49 399.038 344.181C400.585 343.873 402.189 344.031 403.647 344.636C405.105 345.24 406.351 346.264 407.227 347.577C408.104 348.89 408.572 350.434 408.572 352.014C408.569 354.131 407.728 356.161 406.232 357.658C404.737 359.155 402.709 359.997 400.594 360ZM400.594 345.257C399.259 345.257 397.954 345.653 396.844 346.395C395.734 347.138 394.869 348.193 394.358 349.428C393.847 350.663 393.713 352.021 393.974 353.332C394.234 354.643 394.877 355.847 395.821 356.792C396.765 357.737 397.968 358.381 399.277 358.641C400.587 358.902 401.944 358.768 403.177 358.257C404.411 357.746 405.465 356.879 406.207 355.768C406.948 354.657 407.344 353.35 407.344 352.014C407.342 350.222 406.63 348.505 405.365 347.238C404.099 345.971 402.384 345.259 400.594 345.257Z" fill="#3F3D56"/>
<path d="M8.47734 145.606C6.89958 145.606 5.35724 145.138 4.04537 144.261C2.7335 143.383 1.71103 142.136 1.10724 140.677C0.503457 139.217 0.345478 137.612 0.653286 136.062C0.961093 134.513 1.72086 133.09 2.83651 131.973C3.95216 130.857 5.37359 130.096 6.92104 129.788C8.46849 129.48 10.0725 129.638 11.5301 130.242C12.9878 130.847 14.2337 131.87 15.1103 133.184C15.9868 134.497 16.4547 136.041 16.4547 137.62C16.4523 139.738 15.6111 141.768 14.1156 143.265C12.6201 144.762 10.5923 145.604 8.47734 145.606ZM8.47734 130.863C7.14231 130.863 5.83726 131.259 4.72721 132.002C3.61717 132.744 2.752 133.8 2.24111 135.034C1.73021 136.269 1.59654 137.628 1.85699 138.939C2.11744 140.25 2.76032 141.454 3.70433 142.399C4.64835 143.344 5.85109 143.987 7.16047 144.248C8.46986 144.509 9.82707 144.375 11.0605 143.863C12.2939 143.352 13.3481 142.486 14.0898 141.375C14.8315 140.263 15.2274 138.957 15.2274 137.62C15.2254 135.829 14.5136 134.111 13.2481 132.844C11.9827 131.578 10.2669 130.865 8.47734 130.863Z" fill="#3F3D56"/>
<path d="M123.842 311.47L118.362 326.827H106.046V311.163C106.954 291.511 117.969 282.272 118.313 281.989C110.035 289.981 110.955 317.613 110.955 317.613C116.478 293.655 121.387 293.04 121.387 293.04C118.417 297.506 116.883 317.822 116.791 319.087C117.159 314.818 123.842 311.47 123.842 311.47Z" fill="#F2F2F2"/>
<path d="M504.913 313.558V326.827H495.445L490.799 313.798C490.799 313.798 496.095 316.452 496.39 319.836C496.316 318.792 495.101 302.722 492.745 299.183C492.745 299.183 496.641 299.669 501.023 318.669C501.023 318.669 501.747 296.757 495.187 290.417C495.463 290.645 504.195 297.967 504.913 313.558Z" fill="#F2F2F2"/>
<path d="M339.199 275.223H324.274L324.175 273.998L323.087 260.339V260.334L321.958 246.134L328.845 216.846L334.697 222.705V250.615C334.697 250.615 338.138 255.785 337.45 257.163C336.762 258.541 336.074 258.541 336.762 259.572C337.45 260.608 338.138 261.297 337.45 261.986C337.115 262.433 336.934 262.978 336.934 263.537C336.934 264.096 337.115 264.641 337.45 265.088C338.138 265.777 339.515 266.808 338.48 267.844C337.45 268.875 336.074 268.186 337.45 271.978C337.702 272.679 338.019 273.355 338.396 273.998C338.641 274.42 338.909 274.829 339.199 275.223Z" fill="#4C3690"/>
<path d="M293.218 180.836L291.153 201.51L312.149 204.612L313.698 192.724L315.247 180.836H293.218Z" fill="#FFB9B9"/>
<path opacity="0.1" d="M293.218 180.836L291.153 201.51L312.149 204.612L313.698 192.724L315.247 180.836H293.218Z" fill="black"/>
<path d="M304.749 187.555C313.874 187.555 321.271 180.15 321.271 171.015C321.271 161.88 313.874 154.475 304.749 154.475C295.624 154.475 288.227 161.88 288.227 171.015C288.227 180.15 295.624 187.555 304.749 187.555Z" fill="#FFB9B9"/>
<path d="M262.998 275.223C262.94 275.102 262.877 274.976 262.814 274.839C262.693 274.581 262.562 274.302 262.42 273.997C261.506 271.957 260.387 269.054 261.033 268.186C262.068 266.808 262.409 265.43 261.721 264.741C261.033 264.052 258.968 265.43 261.033 263.705C263.098 261.985 263.786 263.016 263.098 260.949C262.409 258.882 261.033 259.919 262.409 258.882C263.786 257.852 264.821 258.194 264.133 257.163C263.444 256.127 262.068 256.127 263.444 255.438C264.821 254.749 265.856 255.438 265.509 253.713C265.162 251.993 264.821 252.682 265.509 251.993C265.688 251.814 266.313 250.079 267.148 247.602C269.486 240.602 273.426 227.69 273.426 227.18C273.426 226.491 267.92 204.786 267.92 204.786L265.509 203.403C265.509 203.403 254.839 210.64 251.398 226.838C247.952 243.031 245.546 247.17 245.546 247.17C245.546 247.17 242.105 247.859 244.511 250.268C246.922 252.682 246.922 252.335 244.858 253.713C242.793 255.091 241.416 252.335 242.793 255.091C244.169 257.852 245.887 257.163 244.511 258.882C243.134 260.607 240.728 260.607 242.105 261.985C243.481 263.363 240.728 266.466 242.446 267.844C244.169 269.222 244.858 269.564 244.858 271.978C244.858 272.654 244.913 273.33 245.02 273.997C245.08 274.411 245.164 274.82 245.273 275.223C245.351 275.544 245.43 275.785 245.483 275.938L262.998 275.223Z" fill="#4C3690"/>
<path d="M262.998 275.223H264.4L264.474 274.734L262.814 274.839L256.778 275.223L245.483 275.938L262.998 275.223Z" fill="#3F3D56"/>
<path d="M270.326 260.608L267.232 249.926L267.148 247.602L265.509 203.403L285.819 196.172L289.26 193.411C289.26 193.411 289.948 185.485 290.983 184.796C291.356 184.549 291.955 184.838 292.748 185.512C294.14 186.695 296.137 189.056 298.553 191.691C302.341 195.825 310.258 195.136 312.664 193.758C312.974 193.577 313.295 193.418 313.626 193.279C315.354 192.564 316.105 193.069 316.105 193.069C317.828 194.447 313.699 198.928 313.699 198.928C313.699 198.928 315.076 202.025 324.022 205.128C332.974 208.231 334.697 222.705 334.697 222.705C334.697 222.705 324.022 251.646 324.369 253.713C324.663 255.485 323.444 259.282 323.087 260.334V260.339C323.029 260.508 322.993 260.608 322.993 260.608L323.775 273.997L323.849 275.223H271.782C271.627 274.797 271.432 274.386 271.198 273.997C271.141 273.903 271.078 273.803 271.015 273.703C267.92 268.875 270.326 260.608 270.326 260.608Z" fill="#4C3690"/>
<path d="M288.112 173.134C288.112 173.134 286.396 170.557 287.056 167.783C287.451 166.208 287.606 164.582 287.518 162.96C287.518 162.96 288.904 158.468 290.29 155.958C291.676 153.448 291.016 152.391 295.371 151.598C299.726 150.805 297.945 145.124 309.427 151.268C309.814 151.809 310.353 152.223 310.976 152.459C311.598 152.694 312.276 152.739 312.924 152.589C315.3 152.126 316.158 155.429 316.158 155.429C316.158 155.429 317.741 154.505 318.335 155.826C318.929 157.147 323.164 155.033 323.164 163.951C323.164 172.869 318.345 180.836 318.345 180.836C318.345 180.836 318.698 165.834 310.846 164.315C302.993 162.795 294.546 158.369 292.501 164.05C291.396 167.239 289.924 170.287 288.112 173.134Z" fill="#2F2E41"/>
<path d="M318.517 176.701C319.373 176.701 320.066 175.775 320.066 174.633C320.066 173.491 319.373 172.566 318.517 172.566C317.662 172.566 316.968 173.491 316.968 174.633C316.968 175.775 317.662 176.701 318.517 176.701Z" fill="#FFB9B9"/>
<path d="M179.068 132.704V275.223H404.889V132.704H179.068ZM403.665 273.997H180.298V133.935H403.665V273.997Z" fill="white"/>
</g>
<defs>
<clipPath id="clip0">
<rect width="614" height="360" fill="white" transform="translate(0.5)"/>
</clipPath>
</defs>
</svg>
