<svg width="236" height="58" viewBox="0 0 236 58" fill="none" xmlns="http://www.w3.org/2000/svg">
<rect y="25.8461" width="236" height="31.2308" fill="#7F5AF0"/>
<path d="M10.8086 40.5742C9.89453 40.5977 9.14453 40.4336 8.55859 40.082C7.94922 39.7305 7.48047 39.2148 7.15234 38.5352C6.80078 37.8789 6.57812 37.0703 6.48438 36.1094C6.39062 35.1719 6.39062 34.1406 6.48438 33.0156C6.60156 32.1484 6.8125 31.2461 7.11719 30.3086C7.375 29.5117 7.77344 28.6328 8.3125 27.6719C8.82812 26.7109 9.53125 25.7734 10.4219 24.8594C10.6094 24.9062 10.7617 24.9648 10.8789 25.0352C10.9961 25.082 11.0898 25.1406 11.1602 25.2109C11.2305 25.3047 11.2773 25.3867 11.3008 25.457C11.3477 25.7148 11.2773 26.0078 11.0898 26.3359C10.9023 26.6641 10.7148 27.0156 10.5273 27.3906C10.0117 28.4688 9.625 29.4883 9.36719 30.4492C9.10938 31.4102 8.94531 32.3008 8.875 33.1211C8.82812 33.8242 8.83984 34.457 8.91016 35.0195C8.95703 35.6055 9.03906 36.0977 9.15625 36.4961C9.27344 36.918 9.40234 37.2344 9.54297 37.4453C9.68359 37.6797 9.8125 37.7969 9.92969 37.7969C10.0469 37.7969 10.1641 37.7148 10.2812 37.5508C10.4219 37.3867 10.5508 37.1875 10.668 36.9531C10.8086 36.7188 10.9727 36.3555 11.1602 35.8633C11.3477 35.3945 11.5469 34.8438 11.7578 34.2109C11.9688 33.5781 12.168 32.8984 12.3555 32.1719C12.5664 31.4219 12.7539 30.6719 12.918 29.9219C13.2461 28.4219 13.5977 26.7344 13.9727 24.8594C14.3477 22.9609 14.8984 20.9805 15.625 18.918C15.8594 18.0508 16.1523 17.1016 16.5039 16.0703C16.7852 15.1797 17.1367 14.1484 17.5586 12.9766C18.0039 11.7812 18.5078 10.4922 19.0703 9.10938C19.0703 8.99219 19.1641 8.88672 19.3516 8.79297C19.5625 8.67578 19.7969 8.55859 20.0547 8.44141C20.3359 8.32422 20.6523 8.20703 21.0039 8.08984C21.4727 7.92578 21.8359 7.83203 22.0938 7.80859C22.375 7.78516 22.5859 7.82031 22.7266 7.91406C22.8672 8.00781 22.9609 8.13672 23.0078 8.30078C23.0547 8.44141 23.0781 8.60547 23.0781 8.79297C23.125 9.56641 23.1484 10.293 23.1484 10.9727C23.1719 11.6523 23.1953 12.25 23.2188 12.7656C23.2422 13.375 23.2539 13.9258 23.2539 14.418C23.2773 15.0742 23.2422 15.9531 23.1484 17.0547C23.0547 18.1328 22.9492 19.2695 22.832 20.4648C22.7383 21.6602 22.6445 22.832 22.5508 23.9805C22.4805 25.1055 22.4688 26.043 22.5156 26.793C22.5156 27.1914 22.5273 27.5664 22.5508 27.918C22.5977 28.2461 22.6445 28.5742 22.6914 28.9023C22.9961 28.0586 23.3359 27.1797 23.7109 26.2656C24.0859 25.3281 24.4609 24.4375 24.8359 23.5938C25.2109 22.7266 25.5625 21.9297 25.8906 21.2031C26.2188 20.4531 26.4766 19.832 26.6641 19.3398C26.9453 18.6836 27.3203 17.8516 27.7891 16.8438C28.2578 15.8359 28.7266 14.8281 29.1953 13.8203C29.6875 12.8125 30.1328 11.8867 30.5312 11.043C30.9531 10.1992 31.2578 9.61328 31.4453 9.28516C31.5859 9.05078 31.8203 8.83984 32.1484 8.65234C32.5 8.46484 32.8633 8.30078 33.2383 8.16016C33.6367 8.01953 34 7.92578 34.3281 7.87891C34.6797 7.80859 34.9141 7.79687 35.0312 7.84375C35.3359 7.91406 35.5469 8.00781 35.6641 8.125C35.8047 8.24219 35.8867 8.32422 35.9102 8.37109C35.957 8.46484 35.9922 8.62891 36.0156 8.86328C36.0391 9.07422 36.0273 9.41406 35.9805 9.88281C35.9336 10.4453 35.793 11.3008 35.5586 12.4492C35.3477 13.5977 35.0781 14.9102 34.75 16.3867C34.4453 17.8398 34.1055 19.3984 33.7305 21.0625C33.3789 22.7266 33.0391 24.3672 32.7109 25.9844C32.3828 27.5781 32.0898 29.0781 31.832 30.4844C31.5977 31.8906 31.4453 33.0742 31.375 34.0352C31.3281 35.1133 31.3984 36.0625 31.5859 36.8828C31.6562 37.2344 31.7617 37.5742 31.9023 37.9023C32.043 38.2305 32.2305 38.5117 32.4648 38.7461C32.6992 39.0039 32.9805 39.1914 33.3086 39.3086C33.6367 39.4258 34.0234 39.4609 34.4688 39.4141C33.8828 39.8125 33.3086 40.1055 32.7461 40.293C32.1836 40.4805 31.6328 40.5742 31.0938 40.5742C30.5078 40.5977 29.9922 40.5039 29.5469 40.293C29.1016 40.1055 28.7266 39.8242 28.4219 39.4492C28.1172 39.0977 27.8945 38.6641 27.7539 38.1484C27.6133 37.6562 27.5664 37.1055 27.6133 36.4961C27.6602 35.9336 27.8125 35.0078 28.0703 33.7188C28.3281 32.4297 28.6328 30.9766 28.9844 29.3594C29.3594 27.7188 29.7578 26.0195 30.1797 24.2617C30.625 22.4805 31.0352 20.8164 31.4102 19.2695C31.8086 17.6992 32.1484 16.3516 32.4297 15.2266C32.7109 14.1016 32.8867 13.3633 32.957 13.0117C33.0039 12.7305 33.0391 12.4727 33.0625 12.2383C33.1094 11.9805 33.1562 11.7578 33.2031 11.5703C32.9688 12.0391 32.6758 12.6016 32.3242 13.2578C31.9961 13.9141 31.6445 14.6172 31.2695 15.3672C30.8945 16.1172 30.5078 16.9023 30.1094 17.7227C29.7344 18.5195 29.3711 19.293 29.0195 20.043C28.4336 21.2617 27.8594 22.5156 27.2969 23.8047C26.7344 25.0703 26.2305 26.2773 25.7852 27.4258C25.3398 28.5742 24.9648 29.6055 24.6602 30.5195C24.3789 31.4336 24.2148 32.1367 24.168 32.6289V33.1211C24.168 33.2617 24.168 33.4258 24.168 33.6133C24.1914 33.8008 24.2266 33.9766 24.2734 34.1406L22.8672 35.2305C22.6562 35.3008 22.4688 35.3594 22.3047 35.4062C22.1641 35.4531 22.0234 35.4766 21.8828 35.4766C21.3438 35.4766 20.9336 35.1953 20.6523 34.6328C20.3711 34.1172 20.1133 33.1094 19.8789 31.6094C19.6445 30.1094 19.5742 28.2695 19.668 26.0898C19.7148 25.0117 19.7852 23.9219 19.8789 22.8203C19.9961 21.7188 20.1016 20.6641 20.1953 19.6562C20.3125 18.6484 20.418 17.7109 20.5117 16.8438C20.6055 15.9531 20.6523 15.1914 20.6523 14.5586C20.6758 14.0898 20.6641 13.668 20.6172 13.293C20.5703 12.8945 20.5234 12.5313 20.4766 12.2031C20.2656 12.7422 20.0312 13.4805 19.7734 14.418C19.5156 15.332 19.2461 16.3516 18.9648 17.4766C18.6836 18.6016 18.3906 19.7852 18.0859 21.0273C17.8047 22.2695 17.5234 23.4648 17.2422 24.6133C16.9844 25.7617 16.7383 26.8281 16.5039 27.8125C16.2695 28.7734 16.082 29.5469 15.9414 30.1328C15.707 31.0703 15.4727 32.1367 15.2383 33.332C15.0039 34.5273 14.7109 35.6523 14.3594 36.707C14.0078 37.7852 13.5508 38.6875 12.9883 39.4141C12.4258 40.1641 11.6992 40.5508 10.8086 40.5742ZM54.4375 27.0039C54.1094 27.4727 53.6875 28.0586 53.1719 28.7617C52.6562 29.4414 52.1172 30.1328 51.5547 30.8359C51.0156 31.5156 50.4766 32.1484 49.9375 32.7344C49.4219 33.2969 48.9883 33.6953 48.6367 33.9297C48.4023 34.0703 48.1328 34.1875 47.8281 34.2812C47.5234 34.375 47.207 34.4336 46.8789 34.457C46.5742 34.4805 46.2812 34.457 46 34.3867C45.7188 34.3398 45.4727 34.2461 45.2617 34.1055C45.0508 33.9414 44.875 33.707 44.7344 33.4023C44.6172 33.1445 44.5 32.8047 44.3828 32.3828C44.2891 31.9609 44.2539 31.4336 44.2773 30.8008C43.7148 31.7383 43.0938 32.4648 42.4141 32.9805C41.7344 33.4727 41.0898 33.8359 40.4805 34.0703C39.7773 34.3281 39.0742 34.4805 38.3711 34.5273C38.043 34.5273 37.6914 34.4102 37.3164 34.1758C36.9414 33.9648 36.625 33.625 36.3672 33.1562C36.1094 32.6641 35.9453 32.043 35.875 31.293C35.8047 30.5195 35.8984 29.6055 36.1562 28.5508C36.4844 27.1211 37 25.8203 37.7031 24.6484C38.4297 23.4766 39.2148 22.4805 40.0586 21.6602C40.9023 20.8164 41.7344 20.1836 42.5547 19.7617C43.375 19.3398 44.0547 19.1523 44.5938 19.1992C45.2266 19.3164 45.7422 19.5039 46.1406 19.7617C46.4688 19.9961 46.6797 20.3477 46.7734 20.8164C46.8906 21.2617 46.7031 21.8594 46.2109 22.6094C46.5391 22.5391 46.8086 22.4922 47.0195 22.4688C47.2539 22.4453 47.4297 22.4336 47.5469 22.4336C47.6875 22.4336 47.7812 22.4453 47.8281 22.4688C47.8516 22.5156 47.8633 22.6211 47.8633 22.7852C47.8633 22.9258 47.8281 23.1953 47.7578 23.5938C47.6875 23.9922 47.582 24.5312 47.4414 25.2109C47.3008 25.8906 47.1133 26.7695 46.8789 27.8477C46.832 28.0586 46.7852 28.2578 46.7383 28.4453C46.7148 28.6094 46.6797 28.7852 46.6328 28.9727C46.6094 29.1367 46.5742 29.3359 46.5273 29.5703C46.4805 29.8047 46.4219 30.0977 46.3516 30.4492C46.3281 30.6602 46.3164 30.8945 46.3164 31.1523C46.3398 31.3867 46.3867 31.6094 46.457 31.8203C46.5273 32.0312 46.6328 32.207 46.7734 32.3477C46.9375 32.4648 47.1602 32.5234 47.4414 32.5234C47.6758 32.5234 47.9805 32.3828 48.3555 32.1016C48.7305 31.7969 49.1289 31.4219 49.5508 30.9766C49.9727 30.5078 50.4062 30.0039 50.8516 29.4648C51.3203 28.9023 51.7539 28.3633 52.1523 27.8477C52.5508 27.332 52.9023 26.875 53.207 26.4766C53.5352 26.0781 53.7695 25.7852 53.9102 25.5977C54.0977 25.3867 54.2852 25.2695 54.4727 25.2461C54.6602 25.1992 54.8008 25.2461 54.8945 25.3867C54.9883 25.5273 55 25.7383 54.9297 26.0195C54.8828 26.3008 54.7188 26.6289 54.4375 27.0039ZM44.1367 28.5508C44.2539 28.082 44.3945 27.5312 44.5586 26.8984C44.7227 26.2656 44.8633 25.6562 44.9805 25.0703C45.0977 24.4844 45.1797 24.0039 45.2266 23.6289C45.2969 23.2305 45.2852 23.043 45.1914 23.0664C45.0742 23.0898 44.9453 23.125 44.8047 23.1719C44.6875 23.2188 44.5352 23.2539 44.3477 23.2773C44.1602 23.3008 43.9727 23.3359 43.7852 23.3828C43.9727 23.0078 44.0781 22.7031 44.1016 22.4688C44.1484 22.2109 44.1602 22.0117 44.1367 21.8711C44.1133 21.707 44.0664 21.5781 43.9961 21.4844C43.7383 21.2734 43.2812 21.4492 42.625 22.0117C41.9922 22.5508 41.2539 23.5586 40.4102 25.0352C40.0586 25.6445 39.7773 26.3008 39.5664 27.0039C39.3555 27.6836 39.2031 28.3281 39.1094 28.9375C39.0391 29.5469 39.0273 30.0859 39.0742 30.5547C39.1211 31 39.2148 31.293 39.3555 31.4336C39.6133 31.6914 39.9062 31.8203 40.2344 31.8203C40.5625 31.7969 40.8906 31.7031 41.2188 31.5391C41.5703 31.3516 41.9102 31.1172 42.2383 30.8359C42.5898 30.5547 42.8945 30.2617 43.1523 29.957C43.4336 29.6523 43.6562 29.3711 43.8203 29.1133C44.0078 28.8555 44.1133 28.668 44.1367 28.5508ZM61.3281 21.0625C61.6328 20.8281 61.9258 20.6523 62.207 20.5352C62.5117 20.3945 62.7812 20.3008 63.0156 20.2539C63.2734 20.1836 63.5312 20.1602 63.7891 20.1836C64.4219 20.2305 64.8086 20.4297 64.9492 20.7812C65.1133 21.1328 65.1367 21.6953 65.0195 22.4688C64.9492 22.8672 64.8086 23.3711 64.5977 23.9805C64.3867 24.5898 64.1406 25.3398 63.8594 26.2305C63.5781 27.0977 63.2734 28.0938 62.9453 29.2188C62.6406 30.3438 62.3477 31.6094 62.0664 33.0156C61.7852 34.1641 61.4805 35.4883 61.1523 36.9883C60.8711 38.3008 60.5312 39.8828 60.1328 41.7344C59.7578 43.5859 59.3477 45.707 58.9023 48.0977C58.7852 48.6836 58.5273 49.0234 58.1289 49.1172C57.7539 49.2109 57.3555 49.1641 56.9336 48.9766C56.7695 48.8828 56.6172 48.7773 56.4766 48.6602C56.3594 48.543 56.2305 48.4023 56.0898 48.2383C55.9492 48.0977 55.832 47.8984 55.7383 47.6406C56.2773 45.6719 56.7461 43.8789 57.1445 42.2617C57.5664 40.6445 57.9414 39.2383 58.2695 38.043C58.6211 36.6602 58.9492 35.418 59.2539 34.3164C59.3711 33.8242 59.4766 33.3438 59.5703 32.875C59.6875 32.3828 59.8047 31.9023 59.9219 31.4336C59.6172 31.9258 59.2891 32.3945 58.9375 32.8398C58.5859 33.2852 58.1992 33.6719 57.7773 34C57.3555 34.3281 56.8984 34.5742 56.4062 34.7383C55.9375 34.9258 55.4453 34.9844 54.9297 34.9141C53.6641 34.75 52.7617 34.2812 52.2227 33.5078C51.707 32.7344 51.4844 31.7266 51.5547 30.4844C51.5781 29.9922 51.6484 29.4531 51.7656 28.8672C51.8828 28.2812 52.0117 27.7188 52.1523 27.1797C52.293 26.6406 52.4219 26.1602 52.5391 25.7383C52.6797 25.293 52.7852 24.9766 52.8555 24.7891C53.1367 23.8984 53.3359 23.1367 53.4531 22.5039C53.5938 21.8711 53.5 21.3438 53.1719 20.9219C53.5 20.7109 53.8047 20.5703 54.0859 20.5C54.3906 20.4062 54.6602 20.3359 54.8945 20.2891C55.1523 20.2656 55.4102 20.2656 55.668 20.2891C56.3008 20.3828 56.6641 20.6172 56.7578 20.9922C56.875 21.3672 56.8398 21.9297 56.6523 22.6797C56.5586 23.0781 56.4062 23.5938 56.1953 24.2266C55.9844 24.8359 55.7617 25.4688 55.5273 26.125C55.293 26.7812 55.082 27.3906 54.8945 27.9531C54.707 28.4922 54.6016 28.8789 54.5781 29.1133C54.3672 30.168 54.3555 30.9883 54.543 31.5742C54.7305 32.1367 55.1406 32.418 55.7734 32.418C56.0781 32.418 56.418 32.2891 56.793 32.0312C57.168 31.75 57.543 31.3867 57.918 30.9414C58.3164 30.4961 58.7031 29.9922 59.0781 29.4297C59.4531 28.8438 59.793 28.2578 60.0977 27.6719C60.4258 27.0859 60.707 26.5117 60.9414 25.9492C61.1992 25.3867 61.3867 24.8828 61.5039 24.4375C61.668 23.5703 61.7734 22.8906 61.8203 22.3984C61.8672 21.9062 61.7031 21.4609 61.3281 21.0625ZM84.7422 27.0039C84.2031 27.8945 83.582 28.8203 82.8789 29.7812C82.1992 30.7188 81.4727 31.5859 80.6992 32.3828C79.9258 33.1562 79.1289 33.8008 78.3086 34.3164C77.4883 34.832 76.668 35.0898 75.8477 35.0898C75.0273 35.0898 74.4297 34.8086 74.0547 34.2461C73.7031 33.707 73.5391 33.0977 73.5625 32.418C73.5625 32.1133 73.5859 31.8438 73.6328 31.6094C73.7031 31.375 73.7734 31.1641 73.8438 30.9766C73.9141 30.7891 73.9844 30.6016 74.0547 30.4141C74.1484 30.2031 74.2305 29.9688 74.3008 29.7109C74.3945 29.4062 74.3945 29.1367 74.3008 28.9023C74.2305 28.6445 74.1367 28.4219 74.0195 28.2344C73.8086 28.4688 73.5625 28.6797 73.2812 28.8672C73.0234 29.0312 72.6953 29.1133 72.2969 29.1133C72.0156 29.1133 71.7578 28.9844 71.5234 28.7266C71.2891 28.4453 71.1719 28.1055 71.1719 27.707C71.1719 27.3789 71.2422 27.1094 71.3828 26.8984C71.5469 26.6875 71.7227 26.5234 71.9102 26.4062C72.1211 26.2891 72.332 26.207 72.543 26.1602C72.7539 26.1133 72.9297 26.0898 73.0703 26.0898C73.1406 26.0898 73.2812 26.1016 73.4922 26.125C73.7266 26.1484 73.9727 26.1836 74.2305 26.2305C75.0742 25.5508 75.6719 24.9414 76.0234 24.4023C76.3984 23.8398 76.4336 23.3359 76.1289 22.8906C75.9414 22.5859 75.707 22.4336 75.4258 22.4336C75.1445 22.4102 74.8516 22.4805 74.5469 22.6445C74.2422 22.7852 73.9375 22.9727 73.6328 23.207C73.3516 23.4414 73.0938 23.6641 72.8594 23.875C72.3906 24.3438 71.8633 24.9062 71.2773 25.5625C70.7148 26.1953 70.2461 26.7227 69.8711 27.1445C69.707 27.8477 69.543 28.5859 69.3789 29.3594C69.2383 30.0391 69.0742 30.8125 68.8867 31.6797C68.7227 32.5234 68.5469 33.4023 68.3594 34.3164C68.2188 34.3867 68.0664 34.4336 67.9023 34.457C67.7617 34.5039 67.6328 34.5391 67.5156 34.5625C67.375 34.5859 67.2344 34.5977 67.0938 34.5977C66.9062 34.5977 66.7305 34.5859 66.5664 34.5625C66.4023 34.5625 66.2734 34.5039 66.1797 34.3867C66.0625 34.293 66.0039 34.1289 66.0039 33.8945C65.9805 33.6602 66.0391 33.332 66.1797 32.9102C66.3672 32.3008 66.6016 31.4922 66.8828 30.4844C67.1641 29.4531 67.457 28.3281 67.7617 27.1094C68.0664 25.8906 68.3711 24.625 68.6758 23.3125C69.0039 21.9766 69.3086 20.7109 69.5898 19.5156C69.8711 18.2969 70.1055 17.207 70.293 16.2461C70.5039 15.2617 70.6562 14.4883 70.75 13.9258C70.8203 13.3164 70.8906 12.7305 70.9609 12.168C71.0078 11.6992 71.0312 11.2422 71.0312 10.7969C71.0547 10.3281 71.0312 9.97656 70.9609 9.74219C71.0781 9.625 71.2422 9.51953 71.4531 9.42578C71.6641 9.33203 71.8984 9.26172 72.1562 9.21484C72.4141 9.14453 72.7188 9.08594 73.0703 9.03906C73.4688 8.99219 73.7969 8.98047 74.0547 9.00391C74.3359 9.02734 74.5352 9.14453 74.6523 9.35547C74.793 9.58984 74.8164 9.98828 74.7227 10.5508C74.6523 11.0898 74.4883 11.8516 74.2305 12.8359C73.9023 14.1016 73.5625 15.2617 73.2109 16.3164C72.8828 17.3477 72.5547 18.3203 72.2266 19.2344C71.9219 20.1484 71.6172 21.0391 71.3125 21.9062C71.0312 22.75 70.7734 23.6172 70.5391 24.5078C71.0078 23.8281 71.5938 23.1133 72.2969 22.3633C73 21.5898 73.7969 20.957 74.6875 20.4648C75.625 19.9727 76.3984 19.7266 77.0078 19.7266C77.7578 19.7266 78.2969 19.9844 78.625 20.5C78.9531 20.9922 79.1055 21.5781 79.082 22.2578C79.0586 22.7969 78.918 23.3008 78.6602 23.7695C78.4258 24.2148 78.1328 24.6367 77.7812 25.0352C77.4297 25.4102 77.0547 25.7383 76.6562 26.0195C76.2578 26.3008 75.918 26.5352 75.6367 26.7227C75.9648 26.9102 76.2461 27.168 76.4805 27.4961C76.7383 27.8008 76.8555 28.1875 76.832 28.6562C76.8086 29.2891 76.6797 29.8516 76.4453 30.3438C76.2344 30.8125 76.1289 31.2461 76.1289 31.6445C76.1523 31.9492 76.2109 32.1719 76.3047 32.3125C76.4219 32.4531 76.6562 32.5234 77.0078 32.5234C77.6406 32.5234 78.2969 32.2539 78.9766 31.7148C79.6797 31.1758 80.3359 30.5547 80.9453 29.8516C81.5547 29.1484 82.1172 28.457 82.6328 27.7773C83.1484 27.0742 83.5469 26.5586 83.8281 26.2305C84.2266 25.8086 84.5547 25.7031 84.8125 25.9141C85.0938 26.1016 85.0703 26.4648 84.7422 27.0039ZM98.4883 26.6875C97.7852 27.7188 96.9883 28.7266 96.0977 29.7109C95.207 30.6719 94.2578 31.5391 93.25 32.3125C92.2656 33.0625 91.2461 33.6719 90.1914 34.1406C89.1602 34.6094 88.1523 34.8438 87.168 34.8438C86.6523 34.8438 86.0898 34.7148 85.4805 34.457C84.8945 34.2227 84.3555 33.8477 83.8633 33.332C83.3711 32.8164 82.9727 32.1484 82.668 31.3281C82.3867 30.5078 82.3047 29.5117 82.4219 28.3398C82.5156 27.3789 82.8086 26.3711 83.3008 25.3164C83.8164 24.2383 84.4375 23.2539 85.1641 22.3633C85.9141 21.4727 86.7461 20.7344 87.6602 20.1484C88.5977 19.5625 89.5352 19.2695 90.4727 19.2695C91.3633 19.2695 92.0078 19.4922 92.4062 19.9375C92.8047 20.3828 92.9805 20.9336 92.9336 21.5898C92.8633 22.3164 92.6523 22.9844 92.3008 23.5938C91.9727 24.2031 91.5742 24.7539 91.1055 25.2461C90.6367 25.7383 90.1328 26.1836 89.5938 26.582C89.0781 26.9805 88.5859 27.3438 88.1172 27.6719C87.6016 28.0234 87.1094 28.3633 86.6406 28.6914C86.1719 28.9961 85.7617 29.2773 85.4102 29.5352C85.4336 30.1211 85.5391 30.6133 85.7266 31.0117C85.9141 31.4102 86.1484 31.7383 86.4297 31.9961C86.7109 32.2305 87.0273 32.4062 87.3789 32.5234C87.7539 32.6172 88.1289 32.6641 88.5039 32.6641C89.3008 32.6641 90.1328 32.418 91 31.9258C91.8672 31.4102 92.7109 30.8008 93.5312 30.0977C94.375 29.3711 95.1484 28.6211 95.8516 27.8477C96.5781 27.0742 97.1758 26.4062 97.6445 25.8438C97.8086 25.6562 97.9727 25.5508 98.1367 25.5273C98.3242 25.4805 98.4648 25.5039 98.5586 25.5977C98.6758 25.668 98.7344 25.8086 98.7344 26.0195C98.7344 26.207 98.6523 26.4297 98.4883 26.6875ZM89.4883 21.2734C89.207 21.2734 88.8672 21.4141 88.4688 21.6953C88.0938 21.9766 87.7188 22.3867 87.3438 22.9258C86.9688 23.4414 86.6172 24.0859 86.2891 24.8594C85.9609 25.6094 85.7148 26.4766 85.5508 27.4609C85.832 27.25 86.1367 27.0391 86.4648 26.8281C86.793 26.5938 87.1211 26.3477 87.4492 26.0898C88.457 25.3164 89.1602 24.6367 89.5586 24.0508C89.957 23.4648 90.1797 22.9609 90.2266 22.5391C90.2734 22.0938 90.2266 21.7773 90.0859 21.5898C89.9453 21.3789 89.7461 21.2734 89.4883 21.2734ZM95.4297 33.4375C96.4609 29.1016 97.2812 25.6211 97.8906 22.9961C98.5234 20.3711 99.0039 18.3672 99.332 16.9844C99.707 15.3438 99.9648 14.207 100.105 13.5742C100.176 13.1289 100.234 12.6953 100.281 12.2734C100.328 11.8984 100.352 11.5117 100.352 11.1133C100.352 10.7148 100.316 10.3516 100.246 10.0234C100.434 9.90625 100.633 9.8125 100.844 9.74219C101.078 9.67188 101.301 9.61328 101.512 9.56641C101.77 9.49609 102.027 9.4375 102.285 9.39062C102.543 9.34375 102.777 9.32031 102.988 9.32031C103.176 9.32031 103.352 9.34375 103.516 9.39062C103.68 9.41406 103.785 9.48437 103.832 9.60156C103.973 9.71875 104.031 9.95312 104.008 10.3047C104.008 10.6562 103.984 11.0195 103.938 11.3945C103.844 11.8398 103.738 12.3203 103.621 12.8359C103.34 13.8437 102.953 15.2969 102.461 17.1953C102.039 18.8125 101.465 21.0156 100.738 23.8047C100.035 26.5938 99.1445 30.1094 98.0664 34.3516C97.9492 34.4688 97.8086 34.5508 97.6445 34.5977C97.4805 34.6445 97.3281 34.668 97.1875 34.668C97.0234 34.668 96.8477 34.6562 96.6602 34.6328C96.4961 34.5859 96.332 34.5156 96.168 34.4219C96.0273 34.3281 95.8867 34.1992 95.7461 34.0352C95.6055 33.8945 95.5 33.6953 95.4297 33.4375ZM103.305 33.4375C104.336 29.1016 105.156 25.6211 105.766 22.9961C106.398 20.3711 106.879 18.3672 107.207 16.9844C107.582 15.3438 107.84 14.207 107.98 13.5742C108.051 13.1289 108.109 12.6953 108.156 12.2734C108.203 11.8984 108.227 11.5117 108.227 11.1133C108.227 10.7148 108.191 10.3516 108.121 10.0234C108.309 9.90625 108.508 9.8125 108.719 9.74219C108.953 9.67188 109.176 9.61328 109.387 9.56641C109.645 9.49609 109.902 9.4375 110.16 9.39062C110.418 9.34375 110.652 9.32031 110.863 9.32031C111.051 9.32031 111.227 9.34375 111.391 9.39062C111.555 9.41406 111.66 9.48437 111.707 9.60156C111.848 9.71875 111.906 9.95312 111.883 10.3047C111.883 10.6562 111.859 11.0195 111.812 11.3945C111.719 11.8398 111.613 12.3203 111.496 12.8359C111.215 13.8437 110.828 15.2969 110.336 17.1953C109.914 18.8125 109.34 21.0156 108.613 23.8047C107.91 26.5938 107.02 30.1094 105.941 34.3516C105.824 34.4688 105.684 34.5508 105.52 34.5977C105.355 34.6445 105.203 34.668 105.062 34.668C104.898 34.668 104.723 34.6562 104.535 34.6328C104.371 34.5859 104.207 34.5156 104.043 34.4219C103.902 34.3281 103.762 34.1992 103.621 34.0352C103.48 33.8945 103.375 33.6953 103.305 33.4375ZM129.355 40.5391C128.184 40.5391 127.117 40.2578 126.156 39.6953C125.219 39.1328 124.41 38.3594 123.73 37.375C123.074 36.3906 122.57 35.2422 122.219 33.9297C121.891 32.5938 121.75 31.1758 121.797 29.6758C121.844 28.2695 122.02 26.7461 122.324 25.1055C122.652 23.4648 123.109 21.8242 123.695 20.1836C124.281 18.5195 124.984 16.9258 125.805 15.4023C126.648 13.8555 127.609 12.4961 128.688 11.3242C129.766 10.1523 130.961 9.21484 132.273 8.51172C133.586 7.78516 135.027 7.42188 136.598 7.42188C137.559 7.42188 138.367 7.62109 139.023 8.01953C139.703 8.39453 140.242 8.89844 140.641 9.53125C141.062 10.1641 141.355 10.8789 141.52 11.6758C141.684 12.4727 141.754 13.2812 141.73 14.1016C141.684 14.875 141.566 15.625 141.379 16.3516C141.215 17.0781 140.969 17.7344 140.641 18.3203C140.336 18.8828 139.949 19.3398 139.48 19.6914C139.035 20.0195 138.52 20.1836 137.934 20.1836C137.652 20.1602 137.383 20.0664 137.125 19.9023C136.891 19.7617 136.645 19.5508 136.387 19.2695C136.152 18.9883 135.93 18.5781 135.719 18.0391C136.352 17.7812 136.844 17.3359 137.195 16.7031C137.57 16.0469 137.852 15.3672 138.039 14.6641C138.25 13.8672 138.391 12.9766 138.461 11.9922C138.508 11.0312 138.309 10.3281 137.863 9.88281C137.418 9.4375 136.914 9.21484 136.352 9.21484C135.25 9.21484 134.09 9.78906 132.871 10.9375C131.652 12.0859 130.516 13.6445 129.461 15.6133C128.43 17.5586 127.551 19.832 126.824 22.4336C126.121 25.0352 125.711 27.7891 125.594 30.6953C125.547 32.0078 125.629 33.1211 125.84 34.0352C126.074 34.9492 126.391 35.6992 126.789 36.2852C127.211 36.8711 127.68 37.293 128.195 37.5508C128.711 37.8086 129.227 37.9375 129.742 37.9375C130.562 37.9375 131.336 37.7617 132.062 37.4102C132.789 37.0586 133.445 36.625 134.031 36.1094C134.641 35.5938 135.156 35.0547 135.578 34.4922C136.023 33.9531 136.363 33.4727 136.598 33.0508C136.762 32.7461 136.938 32.5586 137.125 32.4883C137.312 32.418 137.477 32.4414 137.617 32.5586C137.758 32.6523 137.852 32.8164 137.898 33.0508C137.945 33.2617 137.898 33.5195 137.758 33.8242C137.359 34.6211 136.867 35.418 136.281 36.2148C135.719 37.0117 135.074 37.7266 134.348 38.3594C133.645 39.0156 132.871 39.543 132.027 39.9414C131.184 40.3398 130.293 40.5391 129.355 40.5391ZM159.59 27.0039C159.262 27.4727 158.84 28.0586 158.324 28.7617C157.809 29.4414 157.27 30.1328 156.707 30.8359C156.168 31.5156 155.629 32.1484 155.09 32.7344C154.574 33.2969 154.141 33.6953 153.789 33.9297C153.555 34.0703 153.285 34.1875 152.98 34.2812C152.676 34.375 152.359 34.4336 152.031 34.457C151.727 34.4805 151.434 34.457 151.152 34.3867C150.871 34.3398 150.625 34.2461 150.414 34.1055C150.203 33.9414 150.027 33.707 149.887 33.4023C149.77 33.1445 149.652 32.8047 149.535 32.3828C149.441 31.9609 149.406 31.4336 149.43 30.8008C148.867 31.7383 148.246 32.4648 147.566 32.9805C146.887 33.4727 146.242 33.8359 145.633 34.0703C144.93 34.3281 144.227 34.4805 143.523 34.5273C143.195 34.5273 142.844 34.4102 142.469 34.1758C142.094 33.9648 141.777 33.625 141.52 33.1562C141.262 32.6641 141.098 32.043 141.027 31.293C140.957 30.5195 141.051 29.6055 141.309 28.5508C141.637 27.1211 142.152 25.8203 142.855 24.6484C143.582 23.4766 144.367 22.4805 145.211 21.6602C146.055 20.8164 146.887 20.1836 147.707 19.7617C148.527 19.3398 149.207 19.1523 149.746 19.1992C150.379 19.3164 150.895 19.5039 151.293 19.7617C151.621 19.9961 151.832 20.3477 151.926 20.8164C152.043 21.2617 151.855 21.8594 151.363 22.6094C151.691 22.5391 151.961 22.4922 152.172 22.4688C152.406 22.4453 152.582 22.4336 152.699 22.4336C152.84 22.4336 152.934 22.4453 152.98 22.4688C153.004 22.5156 153.016 22.6211 153.016 22.7852C153.016 22.9258 152.98 23.1953 152.91 23.5938C152.84 23.9922 152.734 24.5312 152.594 25.2109C152.453 25.8906 152.266 26.7695 152.031 27.8477C151.984 28.0586 151.938 28.2578 151.891 28.4453C151.867 28.6094 151.832 28.7852 151.785 28.9727C151.762 29.1367 151.727 29.3359 151.68 29.5703C151.633 29.8047 151.574 30.0977 151.504 30.4492C151.48 30.6602 151.469 30.8945 151.469 31.1523C151.492 31.3867 151.539 31.6094 151.609 31.8203C151.68 32.0312 151.785 32.207 151.926 32.3477C152.09 32.4648 152.312 32.5234 152.594 32.5234C152.828 32.5234 153.133 32.3828 153.508 32.1016C153.883 31.7969 154.281 31.4219 154.703 30.9766C155.125 30.5078 155.559 30.0039 156.004 29.4648C156.473 28.9023 156.906 28.3633 157.305 27.8477C157.703 27.332 158.055 26.875 158.359 26.4766C158.688 26.0781 158.922 25.7852 159.062 25.5977C159.25 25.3867 159.438 25.2695 159.625 25.2461C159.812 25.1992 159.953 25.2461 160.047 25.3867C160.141 25.5273 160.152 25.7383 160.082 26.0195C160.035 26.3008 159.871 26.6289 159.59 27.0039ZM149.289 28.5508C149.406 28.082 149.547 27.5312 149.711 26.8984C149.875 26.2656 150.016 25.6562 150.133 25.0703C150.25 24.4844 150.332 24.0039 150.379 23.6289C150.449 23.2305 150.438 23.043 150.344 23.0664C150.227 23.0898 150.098 23.125 149.957 23.1719C149.84 23.2188 149.688 23.2539 149.5 23.2773C149.312 23.3008 149.125 23.3359 148.938 23.3828C149.125 23.0078 149.23 22.7031 149.254 22.4688C149.301 22.2109 149.312 22.0117 149.289 21.8711C149.266 21.707 149.219 21.5781 149.148 21.4844C148.891 21.2734 148.434 21.4492 147.777 22.0117C147.145 22.5508 146.406 23.5586 145.562 25.0352C145.211 25.6445 144.93 26.3008 144.719 27.0039C144.508 27.6836 144.355 28.3281 144.262 28.9375C144.191 29.5469 144.18 30.0859 144.227 30.5547C144.273 31 144.367 31.293 144.508 31.4336C144.766 31.6914 145.059 31.8203 145.387 31.8203C145.715 31.7969 146.043 31.7031 146.371 31.5391C146.723 31.3516 147.062 31.1172 147.391 30.8359C147.742 30.5547 148.047 30.2617 148.305 29.957C148.586 29.6523 148.809 29.3711 148.973 29.1133C149.16 28.8555 149.266 28.668 149.289 28.5508ZM155.898 33.8242C155.734 34.082 155.559 34.2461 155.371 34.3164C155.16 34.4102 154.984 34.4219 154.844 34.3516C154.68 34.3047 154.574 34.1875 154.527 34C154.48 33.8125 154.527 33.5781 154.668 33.2969C154.738 33.1562 154.902 32.8398 155.16 32.3477C155.395 31.8555 155.688 31.2695 156.039 30.5898C156.367 29.8867 156.73 29.1367 157.129 28.3398C157.527 27.5195 157.902 26.7461 158.254 26.0195C158.629 25.293 158.969 24.6484 159.273 24.0859C159.578 23.5 159.801 23.0781 159.941 22.8203C159.684 22.5859 159.508 22.4219 159.414 22.3281C159.32 22.2109 159.25 21.9766 159.203 21.625C159.156 21.3203 159.227 20.9219 159.414 20.4297C159.602 19.9375 159.848 19.4688 160.152 19.0234C160.457 18.5547 160.797 18.1562 161.172 17.8281C161.547 17.5 161.91 17.3359 162.262 17.3359C162.918 17.3359 163.375 17.5469 163.633 17.9688C163.914 18.3906 164.078 18.8242 164.125 19.2695C164.172 19.5742 164.148 19.9609 164.055 20.4297C163.961 20.8984 163.785 21.3203 163.527 21.6953C163.598 21.7422 163.691 21.8008 163.809 21.8711C163.926 21.918 164.113 21.9414 164.371 21.9414C164.746 21.9414 165.004 21.918 165.145 21.8711C165.309 21.8242 165.555 21.8008 165.883 21.8008C166.281 21.8008 166.609 21.9062 166.867 22.1172C167.125 22.3047 167.336 22.5508 167.5 22.8555C167.664 23.1367 167.781 23.4531 167.852 23.8047C167.945 24.1328 168.004 24.4375 168.027 24.7188C168.098 25.3047 167.945 25.9141 167.57 26.5469C167.195 27.1797 166.738 27.8711 166.199 28.6211C165.871 29.0898 165.543 29.6172 165.215 30.2031C164.887 30.7891 164.746 31.3164 164.793 31.7852C164.84 32.0898 164.922 32.3359 165.039 32.5234C165.156 32.7109 165.484 32.8047 166.023 32.8047C166.422 32.8047 166.855 32.6641 167.324 32.3828C167.816 32.0781 168.309 31.7031 168.801 31.2578C169.316 30.7891 169.82 30.2852 170.312 29.7461C170.805 29.1836 171.262 28.6445 171.684 28.1289C172.105 27.5898 172.457 27.1094 172.738 26.6875C173.043 26.2656 173.266 25.9609 173.406 25.7734C173.523 25.5859 173.676 25.457 173.863 25.3867C174.051 25.3164 174.215 25.3164 174.355 25.3867C174.496 25.457 174.578 25.5977 174.602 25.8086C174.648 26.0195 174.566 26.3008 174.355 26.6523C174.215 26.8867 173.969 27.2617 173.617 27.7773C173.289 28.293 172.879 28.8672 172.387 29.5C171.918 30.1328 171.391 30.7891 170.805 31.4688C170.219 32.125 169.598 32.7344 168.941 33.2969C168.309 33.8359 167.664 34.2812 167.008 34.6328C166.375 34.9844 165.766 35.1602 165.18 35.1602C164.57 35.1602 164.066 35.043 163.668 34.8086C163.27 34.5742 162.941 34.293 162.684 33.9648C162.449 33.6133 162.273 33.2383 162.156 32.8398C162.062 32.418 162.027 32.0312 162.051 31.6797C162.074 31.3984 162.145 31.1055 162.262 30.8008C162.402 30.4727 162.555 30.1445 162.719 29.8164C162.906 29.4648 163.094 29.125 163.281 28.7969C163.492 28.4453 163.68 28.1055 163.844 27.7773C164.242 27.0977 164.559 26.5234 164.793 26.0547C165.051 25.5625 165.18 25.1523 165.18 24.8242C165.18 24.6133 165.133 24.4258 165.039 24.2617C164.945 24.0977 164.793 24.0156 164.582 24.0156C164.441 24.0156 164.336 24.0273 164.266 24.0508C164.219 24.0508 164.16 24.0508 164.09 24.0508C164.043 24.0508 163.961 24.0625 163.844 24.0859C163.75 24.0859 163.598 24.0859 163.387 24.0859C163.082 24.0859 162.824 24.0391 162.613 23.9453C162.402 23.8516 162.203 23.7812 162.016 23.7344C161.922 23.8984 161.711 24.25 161.383 24.7891C161.055 25.3281 160.668 25.9609 160.223 26.6875C159.801 27.4141 159.344 28.1758 158.852 28.9727C158.383 29.7695 157.938 30.5195 157.516 31.2227C157.094 31.9023 156.742 32.4883 156.461 32.9805C156.156 33.4492 155.969 33.7305 155.898 33.8242ZM170.523 33.8242C170.359 34.082 170.184 34.2461 169.996 34.3164C169.785 34.4102 169.609 34.4219 169.469 34.3516C169.305 34.3047 169.199 34.1875 169.152 34C169.105 33.8125 169.152 33.5781 169.293 33.2969C169.363 33.1562 169.527 32.8398 169.785 32.3477C170.02 31.8555 170.312 31.2695 170.664 30.5898C170.992 29.8867 171.355 29.1367 171.754 28.3398C172.152 27.5195 172.527 26.7461 172.879 26.0195C173.254 25.293 173.594 24.6484 173.898 24.0859C174.203 23.5 174.426 23.0781 174.566 22.8203C174.309 22.5859 174.133 22.4219 174.039 22.3281C173.945 22.2109 173.875 21.9766 173.828 21.625C173.781 21.3203 173.852 20.9219 174.039 20.4297C174.227 19.9375 174.473 19.4688 174.777 19.0234C175.082 18.5547 175.422 18.1562 175.797 17.8281C176.172 17.5 176.535 17.3359 176.887 17.3359C177.543 17.3359 178 17.5469 178.258 17.9688C178.539 18.3906 178.703 18.8242 178.75 19.2695C178.797 19.5742 178.773 19.9609 178.68 20.4297C178.586 20.8984 178.41 21.3203 178.152 21.6953C178.223 21.7422 178.316 21.8008 178.434 21.8711C178.551 21.918 178.738 21.9414 178.996 21.9414C179.371 21.9414 179.629 21.918 179.77 21.8711C179.934 21.8242 180.18 21.8008 180.508 21.8008C180.906 21.8008 181.234 21.9062 181.492 22.1172C181.75 22.3047 181.961 22.5508 182.125 22.8555C182.289 23.1367 182.406 23.4531 182.477 23.8047C182.57 24.1328 182.629 24.4375 182.652 24.7188C182.723 25.3047 182.57 25.9141 182.195 26.5469C181.82 27.1797 181.363 27.8711 180.824 28.6211C180.496 29.0898 180.168 29.6172 179.84 30.2031C179.512 30.7891 179.371 31.3164 179.418 31.7852C179.465 32.0898 179.547 32.3359 179.664 32.5234C179.781 32.7109 180.109 32.8047 180.648 32.8047C181.047 32.8047 181.48 32.6641 181.949 32.3828C182.441 32.0781 182.934 31.7031 183.426 31.2578C183.941 30.7891 184.445 30.2852 184.938 29.7461C185.43 29.1836 185.887 28.6445 186.309 28.1289C186.73 27.5898 187.082 27.1094 187.363 26.6875C187.668 26.2656 187.891 25.9609 188.031 25.7734C188.148 25.5859 188.301 25.457 188.488 25.3867C188.676 25.3164 188.84 25.3164 188.98 25.3867C189.121 25.457 189.203 25.5977 189.227 25.8086C189.273 26.0195 189.191 26.3008 188.98 26.6523C188.84 26.8867 188.594 27.2617 188.242 27.7773C187.914 28.293 187.504 28.8672 187.012 29.5C186.543 30.1328 186.016 30.7891 185.43 31.4688C184.844 32.125 184.223 32.7344 183.566 33.2969C182.934 33.8359 182.289 34.2812 181.633 34.6328C181 34.9844 180.391 35.1602 179.805 35.1602C179.195 35.1602 178.691 35.043 178.293 34.8086C177.895 34.5742 177.566 34.293 177.309 33.9648C177.074 33.6133 176.898 33.2383 176.781 32.8398C176.688 32.418 176.652 32.0312 176.676 31.6797C176.699 31.3984 176.77 31.1055 176.887 30.8008C177.027 30.4727 177.18 30.1445 177.344 29.8164C177.531 29.4648 177.719 29.125 177.906 28.7969C178.117 28.4453 178.305 28.1055 178.469 27.7773C178.867 27.0977 179.184 26.5234 179.418 26.0547C179.676 25.5625 179.805 25.1523 179.805 24.8242C179.805 24.6133 179.758 24.4258 179.664 24.2617C179.57 24.0977 179.418 24.0156 179.207 24.0156C179.066 24.0156 178.961 24.0273 178.891 24.0508C178.844 24.0508 178.785 24.0508 178.715 24.0508C178.668 24.0508 178.586 24.0625 178.469 24.0859C178.375 24.0859 178.223 24.0859 178.012 24.0859C177.707 24.0859 177.449 24.0391 177.238 23.9453C177.027 23.8516 176.828 23.7812 176.641 23.7344C176.547 23.8984 176.336 24.25 176.008 24.7891C175.68 25.3281 175.293 25.9609 174.848 26.6875C174.426 27.4141 173.969 28.1758 173.477 28.9727C173.008 29.7695 172.562 30.5195 172.141 31.2227C171.719 31.9023 171.367 32.4883 171.086 32.9805C170.781 33.4492 170.594 33.7305 170.523 33.8242ZM194.219 13.293C194.148 13.5508 194.008 13.8086 193.797 14.0664C193.609 14.3008 193.387 14.5 193.129 14.6641C192.895 14.8047 192.648 14.8984 192.391 14.9453C192.133 14.9922 191.922 14.9453 191.758 14.8047C191.266 14.4297 191.008 14.0312 190.984 13.6094C190.961 13.1641 191.066 12.7539 191.301 12.3789C191.535 11.9805 191.828 11.6523 192.18 11.3945C192.531 11.1133 192.836 10.9492 193.094 10.9023C193.352 10.8555 193.562 10.9141 193.727 11.0781C193.914 11.2188 194.055 11.418 194.148 11.6758C194.242 11.9102 194.289 12.1797 194.289 12.4844C194.312 12.7891 194.289 13.0586 194.219 13.293ZM189.367 20.7812C189.484 20.6406 189.707 20.5234 190.035 20.4297C190.363 20.3359 190.703 20.2656 191.055 20.2188C191.406 20.1484 191.723 20.1133 192.004 20.1133C192.309 20.0898 192.484 20.0898 192.531 20.1133C192.555 20.1367 192.496 20.3828 192.355 20.8516C192.215 21.3203 192.039 21.8711 191.828 22.5039C191.617 23.1367 191.395 23.793 191.16 24.4727C190.926 25.1289 190.75 25.668 190.633 26.0898C190.516 26.5117 190.375 26.9922 190.211 27.5312C190.047 28.0469 189.895 28.5625 189.754 29.0781C189.637 29.5703 189.555 30.0391 189.508 30.4844C189.461 30.9297 189.496 31.2695 189.613 31.5039C189.73 31.7852 189.859 31.9844 190 32.1016C190.141 32.1953 190.293 32.2422 190.457 32.2422C190.926 32.2422 191.512 31.9844 192.215 31.4688C192.941 30.9531 193.668 30.3438 194.395 29.6406C195.145 28.9141 195.836 28.1875 196.469 27.4609C197.102 26.7109 197.57 26.1133 197.875 25.668C198.062 25.4336 198.25 25.2812 198.438 25.2109C198.648 25.1406 198.812 25.1523 198.93 25.2461C199.07 25.3398 199.141 25.4922 199.141 25.7031C199.164 25.9141 199.094 26.1602 198.93 26.4414C198.555 27.0977 198.004 27.8828 197.277 28.7969C196.551 29.6875 195.777 30.5547 194.957 31.3984C194.137 32.2188 193.328 32.9219 192.531 33.5078C191.758 34.0938 191.125 34.3984 190.633 34.4219C190.234 34.4453 189.836 34.375 189.438 34.2109C189.062 34.0703 188.711 33.8711 188.383 33.6133C188.078 33.332 187.82 33.0156 187.609 32.6641C187.398 32.2891 187.281 31.9023 187.258 31.5039C187.188 30.918 187.188 30.1211 187.258 29.1133C187.328 28.082 187.457 27.0391 187.645 25.9844C187.832 24.9062 188.066 23.8867 188.348 22.9258C188.652 21.9648 188.992 21.25 189.367 20.7812ZM195.836 33.4375C196.867 29.1016 197.688 25.6211 198.297 22.9961C198.93 20.3711 199.41 18.3672 199.738 16.9844C200.113 15.3438 200.371 14.207 200.512 13.5742C200.582 13.1289 200.641 12.6953 200.688 12.2734C200.734 11.8984 200.758 11.5117 200.758 11.1133C200.758 10.7148 200.723 10.3516 200.652 10.0234C200.84 9.90625 201.039 9.8125 201.25 9.74219C201.484 9.67188 201.707 9.61328 201.918 9.56641C202.176 9.49609 202.434 9.4375 202.691 9.39062C202.949 9.34375 203.184 9.32031 203.395 9.32031C203.582 9.32031 203.758 9.34375 203.922 9.39062C204.086 9.41406 204.191 9.48437 204.238 9.60156C204.379 9.71875 204.438 9.95312 204.414 10.3047C204.414 10.6562 204.391 11.0195 204.344 11.3945C204.25 11.8398 204.145 12.3203 204.027 12.8359C203.746 13.8437 203.359 15.2969 202.867 17.1953C202.445 18.8125 201.871 21.0156 201.145 23.8047C200.441 26.5938 199.551 30.1094 198.473 34.3516C198.355 34.4688 198.215 34.5508 198.051 34.5977C197.887 34.6445 197.734 34.668 197.594 34.668C197.43 34.668 197.254 34.6562 197.066 34.6328C196.902 34.5859 196.738 34.5156 196.574 34.4219C196.434 34.3281 196.293 34.1992 196.152 34.0352C196.012 33.8945 195.906 33.6953 195.836 33.4375ZM203.711 33.4375C204.742 29.1016 205.562 25.6211 206.172 22.9961C206.805 20.3711 207.285 18.3672 207.613 16.9844C207.988 15.3438 208.246 14.207 208.387 13.5742C208.457 13.1289 208.516 12.6953 208.562 12.2734C208.609 11.8984 208.633 11.5117 208.633 11.1133C208.633 10.7148 208.598 10.3516 208.527 10.0234C208.715 9.90625 208.914 9.8125 209.125 9.74219C209.359 9.67188 209.582 9.61328 209.793 9.56641C210.051 9.49609 210.309 9.4375 210.566 9.39062C210.824 9.34375 211.059 9.32031 211.27 9.32031C211.457 9.32031 211.633 9.34375 211.797 9.39062C211.961 9.41406 212.066 9.48437 212.113 9.60156C212.254 9.71875 212.312 9.95312 212.289 10.3047C212.289 10.6562 212.266 11.0195 212.219 11.3945C212.125 11.8398 212.02 12.3203 211.902 12.8359C211.621 13.8437 211.234 15.2969 210.742 17.1953C210.32 18.8125 209.746 21.0156 209.02 23.8047C208.316 26.5938 207.426 30.1094 206.348 34.3516C206.23 34.4688 206.09 34.5508 205.926 34.5977C205.762 34.6445 205.609 34.668 205.469 34.668C205.305 34.668 205.129 34.6562 204.941 34.6328C204.777 34.5859 204.613 34.5156 204.449 34.4219C204.309 34.3281 204.168 34.1992 204.027 34.0352C203.887 33.8945 203.781 33.6953 203.711 33.4375ZM222.52 28.4102C222.285 29.3008 221.969 30.1328 221.57 30.9062C221.172 31.6797 220.691 32.3477 220.129 32.9102C219.59 33.4727 218.969 33.9062 218.266 34.2109C217.586 34.5391 216.836 34.7031 216.016 34.7031C215.055 34.7031 214.293 34.4922 213.73 34.0703C213.191 33.6719 212.781 33.168 212.5 32.5586C212.242 31.9492 212.09 31.2812 212.043 30.5547C211.973 29.8281 211.938 29.1484 211.938 28.5156C211.938 28.0703 211.996 27.5781 212.113 27.0391C212.207 26.5 212.348 25.9492 212.535 25.3867C212.723 24.8242 212.957 24.2617 213.238 23.6992C213.543 23.1367 213.895 22.6211 214.293 22.1523C214.434 21.7539 214.645 21.4023 214.926 21.0977C215.23 20.793 215.57 20.5469 215.945 20.3594C216.344 20.1484 216.766 19.9961 217.211 19.9023C217.656 19.7852 218.09 19.7266 218.512 19.7266C218.582 19.7266 218.641 19.7383 218.688 19.7617C218.758 19.7852 218.828 19.8086 218.898 19.832C219.203 19.8555 219.578 19.9727 220.023 20.1836C220.492 20.3945 220.938 20.7109 221.359 21.1328C221.805 21.5547 222.18 22.0938 222.484 22.75C222.789 23.3828 222.941 24.1562 222.941 25.0703C222.941 25.2578 222.93 25.4922 222.906 25.7734C222.883 26.0312 222.859 26.2539 222.836 26.4414C223.375 26.2305 223.938 25.9727 224.523 25.668C225.109 25.3633 225.672 25.0469 226.211 24.7188C226.773 24.3672 227.289 24.0156 227.758 23.6641C228.227 23.3125 228.602 22.9961 228.883 22.7148C229.117 22.5039 229.316 22.3867 229.48 22.3633C229.645 22.3398 229.762 22.3867 229.832 22.5039C229.902 22.6211 229.914 22.7852 229.867 22.9961C229.82 23.207 229.691 23.4414 229.48 23.6992C229.363 23.8398 229.059 24.1211 228.566 24.543C228.098 24.9648 227.535 25.4219 226.879 25.9141C226.223 26.4062 225.508 26.8867 224.734 27.3555C223.961 27.8242 223.223 28.1758 222.52 28.4102ZM216.578 23.0664C216.508 23.2773 216.473 23.5 216.473 23.7344C216.473 24.1094 216.496 24.5078 216.543 24.9297C216.59 25.3281 216.707 25.6914 216.895 26.0195C217.082 26.3477 217.375 26.6289 217.773 26.8633C218.195 27.0742 218.77 27.1797 219.496 27.1797C219.613 27.1797 219.73 27.1797 219.848 27.1797C219.965 27.1562 220.082 27.1328 220.199 27.1094C220.27 26.8047 220.328 26.5352 220.375 26.3008C220.445 26.043 220.48 25.8203 220.48 25.6328C220.527 25.1875 220.527 24.7305 220.48 24.2617C220.434 23.793 220.34 23.3711 220.199 22.9961C220.082 22.5977 219.918 22.2812 219.707 22.0469C219.52 21.7891 219.285 21.6602 219.004 21.6602C218.559 21.6602 218.125 21.7891 217.703 22.0469C217.305 22.2812 216.93 22.6211 216.578 23.0664ZM214.328 29.2539C214.328 29.6758 214.352 30.0977 214.398 30.5195C214.445 30.918 214.539 31.2812 214.68 31.6094C214.82 31.9141 215.008 32.1719 215.242 32.3828C215.477 32.5703 215.781 32.6641 216.156 32.6641C216.578 32.6641 216.965 32.5703 217.316 32.3828C217.668 32.1719 217.984 31.9141 218.266 31.6094C218.547 31.2812 218.793 30.918 219.004 30.5195C219.238 30.0977 219.438 29.6641 219.602 29.2188C219.438 29.2422 219.273 29.2656 219.109 29.2891C218.969 29.2891 218.805 29.2891 218.617 29.2891C217.727 29.2891 216.953 29.0312 216.297 28.5156C215.664 27.9766 215.172 27.2969 214.82 26.4766C214.68 26.9688 214.562 27.4492 214.469 27.918C214.375 28.3867 214.328 28.832 214.328 29.2539Z" fill="#FEFEFE"/>
</svg>
