<svg width="128" height="100" viewBox="0 0 128 100" fill="none" xmlns="http://www.w3.org/2000/svg">
<rect y="45.1195" width="128" height="53.956" fill="#7F5AF0"/>
<path d="M28.2272 71.6875C26.6022 71.7292 25.2689 71.4375 24.2272 70.8125C23.1439 70.1875 22.3105 69.2708 21.7272 68.0625C21.1022 66.8958 20.7064 65.4583 20.5397 63.75C20.373 62.0833 20.373 60.25 20.5397 58.25C20.748 56.7083 21.123 55.1042 21.6647 53.4375C22.123 52.0208 22.8314 50.4583 23.7897 48.75C24.7064 47.0417 25.9564 45.375 27.5397 43.75C27.873 43.8333 28.1439 43.9375 28.3522 44.0625C28.5605 44.1458 28.7272 44.25 28.8522 44.375C28.9772 44.5417 29.0605 44.6875 29.1022 44.8125C29.1855 45.2708 29.0605 45.7917 28.7272 46.375C28.3939 46.9583 28.0605 47.5833 27.7272 48.25C26.8105 50.1667 26.123 51.9792 25.6647 53.6875C25.2064 55.3958 24.9147 56.9792 24.7897 58.4375C24.7064 59.6875 24.7272 60.8125 24.8522 61.8125C24.9355 62.8542 25.0814 63.7292 25.2897 64.4375C25.498 65.1875 25.7272 65.75 25.9772 66.125C26.2272 66.5417 26.4564 66.75 26.6647 66.75C26.873 66.75 27.0814 66.6042 27.2897 66.3125C27.5397 66.0208 27.7689 65.6667 27.9772 65.25C28.2272 64.8333 28.5189 64.1875 28.8522 63.3125C29.1855 62.4792 29.5397 61.5 29.9147 60.375C30.2897 59.25 30.6439 58.0417 30.9772 56.75C31.3522 55.4167 31.6855 54.0833 31.9772 52.75C32.5605 50.0833 33.1855 47.0833 33.8522 43.75C34.5189 40.375 35.498 36.8542 36.7897 33.1875C37.2064 31.6458 37.7272 29.9583 38.3522 28.125C38.8522 26.5417 39.4772 24.7083 40.2272 22.625C41.0189 20.5 41.9147 18.2083 42.9147 15.75C42.9147 15.5417 43.0814 15.3542 43.4147 15.1875C43.7897 14.9792 44.2064 14.7708 44.6647 14.5625C45.1647 14.3542 45.7272 14.1458 46.3522 13.9375C47.1855 13.6458 47.8314 13.4792 48.2897 13.4375C48.7897 13.3958 49.1647 13.4583 49.4147 13.625C49.6647 13.7917 49.8314 14.0208 49.9147 14.3125C49.998 14.5625 50.0397 14.8542 50.0397 15.1875C50.123 16.5625 50.1647 17.8542 50.1647 19.0625C50.2064 20.2708 50.248 21.3333 50.2897 22.25C50.3314 23.3333 50.3522 24.3125 50.3522 25.1875C50.3939 26.3542 50.3314 27.9167 50.1647 29.875C49.998 31.7917 49.8105 33.8125 49.6022 35.9375C49.4355 38.0625 49.2689 40.1458 49.1022 42.1875C48.9772 44.1875 48.9564 45.8542 49.0397 47.1875C49.0397 47.8958 49.0605 48.5625 49.1022 49.1875C49.1855 49.7708 49.2689 50.3542 49.3522 50.9375C49.8939 49.4375 50.498 47.875 51.1647 46.25C51.8314 44.5833 52.498 43 53.1647 41.5C53.8314 39.9583 54.4564 38.5417 55.0397 37.25C55.623 35.9167 56.0814 34.8125 56.4147 33.9375C56.9147 32.7708 57.5814 31.2917 58.4147 29.5C59.248 27.7083 60.0814 25.9167 60.9147 24.125C61.7897 22.3333 62.5814 20.6875 63.2897 19.1875C64.0397 17.6875 64.5814 16.6458 64.9147 16.0625C65.1647 15.6458 65.5814 15.2708 66.1647 14.9375C66.7897 14.6042 67.4355 14.3125 68.1022 14.0625C68.8105 13.8125 69.4564 13.6458 70.0397 13.5625C70.6647 13.4375 71.0814 13.4167 71.2897 13.5C71.8314 13.625 72.2064 13.7917 72.4147 14C72.6647 14.2083 72.8105 14.3542 72.8522 14.4375C72.9355 14.6042 72.998 14.8958 73.0397 15.3125C73.0814 15.6875 73.0605 16.2917 72.9772 17.125C72.8939 18.125 72.6439 19.6458 72.2272 21.6875C71.8522 23.7292 71.373 26.0625 70.7897 28.6875C70.248 31.2708 69.6439 34.0417 68.9772 37C68.3522 39.9583 67.748 42.875 67.1647 45.75C66.5814 48.5833 66.0605 51.25 65.6022 53.75C65.1855 56.25 64.9147 58.3542 64.7897 60.0625C64.7064 61.9792 64.8314 63.6667 65.1647 65.125C65.2897 65.75 65.4772 66.3542 65.7272 66.9375C65.9772 67.5208 66.3105 68.0208 66.7272 68.4375C67.1439 68.8958 67.6439 69.2292 68.2272 69.4375C68.8105 69.6458 69.498 69.7083 70.2897 69.625C69.248 70.3333 68.2272 70.8542 67.2272 71.1875C66.2272 71.5208 65.248 71.6875 64.2897 71.6875C63.248 71.7292 62.3314 71.5625 61.5397 71.1875C60.748 70.8542 60.0814 70.3542 59.5397 69.6875C58.998 69.0625 58.6022 68.2917 58.3522 67.375C58.1022 66.5 58.0189 65.5208 58.1022 64.4375C58.1855 63.4375 58.4564 61.7917 58.9147 59.5C59.373 57.2083 59.9147 54.625 60.5397 51.75C61.2064 48.8333 61.9147 45.8125 62.6647 42.6875C63.4564 39.5208 64.1855 36.5625 64.8522 33.8125C65.5605 31.0208 66.1647 28.625 66.6647 26.625C67.1647 24.625 67.4772 23.3125 67.6022 22.6875C67.6855 22.1875 67.748 21.7292 67.7897 21.3125C67.873 20.8542 67.9564 20.4583 68.0397 20.125C67.623 20.9583 67.1022 21.9583 66.4772 23.125C65.8939 24.2917 65.2689 25.5417 64.6022 26.875C63.9355 28.2083 63.248 29.6042 62.5397 31.0625C61.873 32.4792 61.2272 33.8542 60.6022 35.1875C59.5605 37.3542 58.5397 39.5833 57.5397 41.875C56.5397 44.125 55.6439 46.2708 54.8522 48.3125C54.0605 50.3542 53.3939 52.1875 52.8522 53.8125C52.3522 55.4375 52.0605 56.6875 51.9772 57.5625V58.4375C51.9772 58.6875 51.9772 58.9792 51.9772 59.3125C52.0189 59.6458 52.0814 59.9583 52.1647 60.25L49.6647 62.1875C49.2897 62.3125 48.9564 62.4167 48.6647 62.5C48.4147 62.5833 48.1647 62.625 47.9147 62.625C46.9564 62.625 46.2272 62.125 45.7272 61.125C45.2272 60.2083 44.7689 58.4167 44.3522 55.75C43.9355 53.0833 43.8105 49.8125 43.9772 45.9375C44.0605 44.0208 44.1855 42.0833 44.3522 40.125C44.5605 38.1667 44.748 36.2917 44.9147 34.5C45.123 32.7083 45.3105 31.0417 45.4772 29.5C45.6439 27.9167 45.7272 26.5625 45.7272 25.4375C45.7689 24.6042 45.748 23.8542 45.6647 23.1875C45.5814 22.4792 45.498 21.8333 45.4147 21.25C45.0397 22.2083 44.623 23.5208 44.1647 25.1875C43.7064 26.8125 43.2272 28.625 42.7272 30.625C42.2272 32.625 41.7064 34.7292 41.1647 36.9375C40.6647 39.1458 40.1647 41.2708 39.6647 43.3125C39.2064 45.3542 38.7689 47.25 38.3522 49C37.9355 50.7083 37.6022 52.0833 37.3522 53.125C36.9355 54.7917 36.5189 56.6875 36.1022 58.8125C35.6855 60.9375 35.1647 62.9375 34.5397 64.8125C33.9147 66.7292 33.1022 68.3333 32.1022 69.625C31.1022 70.9583 29.8105 71.6458 28.2272 71.6875ZM87.1647 71.625C85.0814 71.625 83.1855 71.125 81.4772 70.125C79.8105 69.125 78.373 67.75 77.1647 66C75.998 64.25 75.1022 62.2083 74.4772 59.875C73.8939 57.5 73.6439 54.9792 73.7272 52.3125C73.8105 49.8125 74.123 47.1042 74.6647 44.1875C75.248 41.2708 76.0605 38.3542 77.1022 35.4375C78.1439 32.4792 79.3939 29.6458 80.8522 26.9375C82.3522 24.1875 84.0605 21.7708 85.9772 19.6875C87.8939 17.6042 90.0189 15.9375 92.3522 14.6875C94.6855 13.3958 97.248 12.75 100.04 12.75C101.748 12.75 103.186 13.1042 104.352 13.8125C105.561 14.4792 106.519 15.375 107.227 16.5C107.977 17.625 108.498 18.8958 108.79 20.3125C109.081 21.7292 109.206 23.1667 109.165 24.625C109.081 26 108.873 27.3333 108.54 28.625C108.248 29.9167 107.811 31.0833 107.227 32.125C106.686 33.125 105.998 33.9375 105.165 34.5625C104.373 35.1458 103.456 35.4375 102.415 35.4375C101.915 35.3958 101.436 35.2292 100.977 34.9375C100.561 34.6875 100.123 34.3125 99.6647 33.8125C99.248 33.3125 98.8522 32.5833 98.4772 31.625C99.6022 31.1667 100.477 30.375 101.102 29.25C101.769 28.0833 102.269 26.875 102.602 25.625C102.977 24.2083 103.227 22.625 103.352 20.875C103.436 19.1667 103.081 17.9167 102.29 17.125C101.498 16.3333 100.602 15.9375 99.6022 15.9375C97.6439 15.9375 95.5814 16.9583 93.4147 19C91.248 21.0417 89.2272 23.8125 87.3522 27.3125C85.5189 30.7708 83.9564 34.8125 82.6647 39.4375C81.4147 44.0625 80.6855 48.9583 80.4772 54.125C80.3939 56.4583 80.5397 58.4375 80.9147 60.0625C81.3314 61.6875 81.8939 63.0208 82.6022 64.0625C83.3522 65.1042 84.1855 65.8542 85.1022 66.3125C86.0189 66.7708 86.9355 67 87.8522 67C89.3105 67 90.6855 66.6875 91.9772 66.0625C93.2689 65.4375 94.4355 64.6667 95.4772 63.75C96.5605 62.8333 97.4772 61.875 98.2272 60.875C99.0189 59.9167 99.623 59.0625 100.04 58.3125C100.331 57.7708 100.644 57.4375 100.977 57.3125C101.311 57.1875 101.602 57.2292 101.852 57.4375C102.102 57.6042 102.269 57.8958 102.352 58.3125C102.436 58.6875 102.352 59.1458 102.102 59.6875C101.394 61.1042 100.519 62.5208 99.4772 63.9375C98.4772 65.3542 97.3314 66.625 96.0397 67.75C94.7897 68.9167 93.4147 69.8542 91.9147 70.5625C90.4147 71.2708 88.8314 71.625 87.1647 71.625Z" fill="#FFFFFE"/>
</svg>
